<svg xmlns="http://www.w3.org/2000/svg" width="25" height="32" viewBox="0 0 25 32"><defs><style>.a,.b,.d{fill:none;}.a,.b{stroke:#7b46e4;stroke-miterlimit:10;}.b{stroke-linecap:round;}.c{stroke:none;}</style></defs><g class="a" transform="translate(2 7)"><path class="c" d="M0,0H21a0,0,0,0,1,0,0V20a5,5,0,0,1-5,5H5a5,5,0,0,1-5-5V0A0,0,0,0,1,0,0Z"/><path class="d" d="M1,.5H20a.5.5,0,0,1,.5.5V20A4.5,4.5,0,0,1,16,24.5H5A4.5,4.5,0,0,1,.5,20V1A.5.5,0,0,1,1,.5Z"/></g><g class="a" transform="translate(0 2)"><rect class="c" width="25" height="6" rx="1.5"/><rect class="d" x="0.5" y="0.5" width="24" height="5" rx="1"/></g><path class="b" d="M.5.5v16" transform="translate(12 11)"/><path class="b" d="M.5.5v16" transform="translate(17 11)"/><path class="b" d="M.5.5v16" transform="translate(7 11)"/><g class="a" transform="translate(8)"><rect class="c" width="9" height="3" rx="1"/><rect class="d" x="0.5" y="0.5" width="8" height="2" rx="0.5"/></g></svg>